<svg
  width="477"
  height="352"
  viewBox="0 0 477 352"
  fill="none"
  xmlns="http://www.w3.org/2000/svg"
>
<g clip-path="url(#clip0_1_562)">
<g opacity="0.5">
<path
        opacity="0.4"
        d="M39.3 163.02C34.38 161.32 30.19 160.51 29.95 161.2C29.71 161.89 33.51 163.83 38.43 165.53C43.35 167.23 47.54 168.04 47.78 167.35C48.02 166.66 44.22 164.72 39.3 163.02Z"
        fill="white"
      />
<path
        opacity="0.5"
        d="M29.95 161.2C29.8 161.65 31.32 162.61 33.75 163.7L38.84 164.36L34.48 161.57C31.9 160.93 30.11 160.75 29.95 161.2Z"
        fill="white"
      />
<path
        opacity="0.5"
        d="M44.68 165.17L39.47 164.57L44 167.15C46.17 167.64 47.64 167.75 47.78 167.34C47.92 166.94 46.69 166.12 44.68 165.17Z"
        fill="white"
      />
<path
        opacity="0.4"
        d="M95.56 181.9C90.64 180.2 86.45 179.39 86.21 180.08C85.97 180.77 89.77 182.71 94.69 184.41C99.61 186.11 103.8 186.92 104.04 186.23C104.28 185.54 100.48 183.6 95.56 181.9Z"
        fill="white"
      />
<path
        opacity="0.5"
        d="M86.22 180.09C86.07 180.54 87.59 181.5 90.02 182.59L95.11 183.25L90.75 180.46C88.17 179.82 86.38 179.64 86.22 180.09Z"
        fill="white"
      />
<path
        opacity="0.5"
        d="M100.94 184.05L95.73 183.46L100.26 186.04C102.43 186.53 103.9 186.64 104.04 186.23C104.18 185.83 102.95 185.01 100.94 184.06V184.05Z"
        fill="white"
      />
<path
        opacity="0.4"
        d="M20.02 147.58C9.48 143.95 0.529998 142.21 0.0199976 143.69C-0.490002 145.17 7.63 149.32 18.17 152.95C28.71 156.58 37.66 158.32 38.17 156.84C38.68 155.36 30.56 151.21 20.02 147.58Z"
        fill="white"
      />
<path
        opacity="0.5"
        d="M0.0199995 143.7C-0.310001 144.66 2.96 146.72 8.14 149.04L19.03 150.46L9.71 144.5C4.2 143.13 0.35 142.75 0.0199995 143.7Z"
        fill="white"
      />
<path
        opacity="0.5"
        d="M31.54 152.19L20.39 150.92L30.08 156.43C34.73 157.48 37.87 157.71 38.17 156.85C38.47 155.99 35.85 154.23 31.54 152.2V152.19Z"
        fill="white"
      />
<path
        opacity="0.4"
        d="M117.82 180.41C107.29 176.78 98.33 175.04 97.82 176.52C97.31 178 105.43 182.15 115.97 185.78C126.5 189.41 135.46 191.15 135.97 189.67C136.48 188.19 128.36 184.04 117.82 180.41Z"
        fill="white"
      />
<path
        opacity="0.5"
        d="M97.82 176.52C97.49 177.48 100.76 179.54 105.94 181.86L116.83 183.28L107.51 177.32C102 175.95 98.15 175.57 97.82 176.52Z"
        fill="white"
      />
<path
        opacity="0.5"
        d="M129.34 185.01L118.19 183.74L127.87 189.25C132.52 190.3 135.66 190.53 135.96 189.67C136.26 188.81 133.64 187.05 129.33 185.02L129.34 185.01Z"
        fill="white"
      />
<path
        d="M74.07 193.1L78.68 194.63L77.62 197.8L81.52 199.1L84.35 190.59L75.65 188.34L74.07 193.1Z"
        fill="#D9D9D9"
      />
<path
        d="M74.77 190.99C74.77 190.99 74.79 190.99 74.81 190.99C77.74 191.68 80.49 192.83 83.19 194.1L84.36 190.59L75.66 188.34L74.78 190.99H74.77Z"
        fill="#BFBFBF"
      />
<path
        d="M51.17 189.54C50.93 190.25 51.32 191.02 52.03 191.26L65.66 195.79C66.37 196.03 67.14 195.64 67.38 194.93L70.41 185.84L54.2 180.45L51.18 189.54H51.17Z"
        fill="#D9D9D9"
      />
<path
        d="M38.97 184.94L42.87 186.24L43.92 183.07L48.54 184.6L50.12 179.84L41.8 176.44L38.97 184.94Z"
        fill="#D9D9D9"
      />
<path
        d="M40.66 179.86C40.81 179.89 40.96 179.91 41.12 179.95C43.87 180.66 46.55 181.6 49.21 182.59L50.12 179.85L41.8 176.44L40.66 179.86Z"
        fill="#BFBFBF"
      />
<path
        d="M11 161.07L20.2 164.13L21.53 160.2L12.33 157.14L11 161.07Z"
        fill="white"
      />
<path
        d="M15.72 158.32L18 159.08L19.87 153.63L17.6 152.87L15.72 158.32Z"
        fill="#D9D9D9"
      />
<path
        d="M17.6402 149.776L16.7122 152.565L20.7639 153.913L21.6919 151.124L17.6402 149.776Z"
        fill="white"
      />
<path
        d="M20.4 148.25C19.28 147.88 18.07 148.48 17.7 149.6L17.64 149.79L21.69 151.14L21.75 150.95C22.12 149.83 21.52 148.62 20.4 148.25Z"
        fill="white"
      />
<path
        d="M39.36 162.78C38.61 162.53 37.79 162.94 37.54 163.69L37.5 163.82L36.88 165.69L38.86 166.35L37.48 165.89L36.34 169.31L34.01 168.54L33.07 171.38L39.26 173.44L40.2 170.6L37.87 169.83L39.01 166.41L39.61 166.61L40.23 164.74L40.27 164.61C40.52 163.86 40.11 163.04 39.36 162.79V162.78Z"
        fill="#D4D4D4"
      />
<path
        d="M95.66 181.5C94.91 181.25 94.09 181.66 93.84 182.41L93.8 182.54L93.18 184.41L93.78 184.61L93.93 184.66L93.78 184.61L92.64 188.03L90.31 187.26L89.37 190.1L95.56 192.16L96.5 189.32L94.17 188.55L95.31 185.13L95.91 185.33L96.53 183.46L96.57 183.33C96.82 182.58 96.41 181.76 95.66 181.51V181.5Z"
        fill="#D4D4D4"
      />
<path d="M93.77 184.62L93.92 184.67L93.77 184.62Z" fill="#D4D4D4" />
<path
        d="M68.43 168.61L68.32 168.57C57.24 164.93 49.72 174.42 48.45 175.79L79.96 186.33C79.77 184.48 79.48 172.33 68.43 168.61Z"
        fill="white"
      />
<path
        d="M33.28 193.62C32.27 196.17 31.36 199.39 31.36 199.39C31.36 199.39 30.82 201.93 32.07 203.95L35.67 193.13L42.87 186.24L38.98 184.94C38.98 184.94 34.29 191.07 33.28 193.62Z"
        fill="#211D1C"
      />
<path
        d="M77.62 197.8L79.25 207.63L75.65 218.45C77.86 217.58 78.95 215.22 78.95 215.22C78.95 215.22 80.15 212.1 80.87 209.45C81.59 206.81 81.51 199.09 81.51 199.09L77.62 197.79V197.8Z"
        fill="#211D1C"
      />
<path
        d="M117.55 196.51L108.9 193.63C107.59 193.2 106.2 193.7 105.45 194.77L93.39 190.83C90.46 189.87 87.63 188.62 84.94 187.1L79.71 184.27L50.15 174.35L44.54 173.49C41.47 173.12 38.44 172.44 35.51 171.46L22.41 167.1C22.43 165.81 21.62 164.6 20.33 164.17L11.68 161.29C10.09 160.76 8.37 161.62 7.84 163.21C7.31 164.8 8.17 166.52 9.76 167.05L15.52 168.97L45.03 178.79L52.69 186.57L68.71 191.69L79.09 190.66L111.45 200.89L115.63 202.28C117.22 202.81 118.94 201.95 119.47 200.36C120 198.77 119.14 197.05 117.55 196.52V196.51Z"
        fill="#211D1C"
      />
<path
        d="M108.88 193.68L118.08 196.74L119.51 192.79L110.31 189.73L108.88 193.68Z"
        fill="white"
      />
<path
        d="M113.65 190.94L115.93 191.7L117.85 186.22L115.57 185.46L113.65 190.94Z"
        fill="#D9D9D9"
      />
<path
        d="M115.621 182.375L114.693 185.165L118.745 186.513L119.673 183.723L115.621 182.375Z"
        fill="white"
      />
<path
        d="M118.37 180.84C117.25 180.47 116.04 181.07 115.67 182.19L115.61 182.38L119.66 183.73L119.72 183.54C120.09 182.42 119.49 181.21 118.37 180.84Z"
        fill="white"
      />
<path
        d="M32.5549 197.005L18.1247 236.502L66.9669 254.346L81.3971 214.85L32.5549 197.005Z"
        fill="#B0856F"
      />
<path
        d="M52.6263 204.335L50.2241 210.909L58.903 214.08L61.3051 207.505L52.6263 204.335Z"
        fill="#C09D8C"
      />
<path
        d="M40.5995 237.258L38.1973 243.833L46.8762 247.003L49.2783 240.429L40.5995 237.258Z"
        fill="#C09D8C"
      />
<path
        d="M15.52 232.99L18.12 236.48L32.55 196.99L28.16 198.39L15.52 232.99Z"
        fill="#846453"
      />
</g>
<path
      opacity="0.4"
      d="M191.6 73.14C176.62 75.54 164.75 79.2 165.08 81.31C165.42 83.42 177.84 83.19 192.82 80.79C207.8 78.39 219.67 74.73 219.34 72.62C219 70.51 206.58 70.74 191.6 73.14Z"
      fill="white"
    />
<path
      opacity="0.5"
      d="M165.09 81.31C165.31 82.67 170.56 83.06 178.27 82.51L192.26 77.23L177.24 76.05C169.74 77.95 164.87 79.95 165.09 81.31Z"
      fill="white"
    />
<path
      opacity="0.5"
      d="M208.4 71.28L194.2 76.9L209.37 77.31C215.62 75.59 219.55 73.85 219.35 72.62C219.15 71.39 214.88 70.96 208.4 71.28Z"
      fill="white"
    />
<path
      opacity="0.4"
      d="M362.17 44.42C347.19 46.82 335.32 50.48 335.65 52.59C335.99 54.7 348.41 54.47 363.39 52.07C378.37 49.67 390.24 46.01 389.91 43.9C389.57 41.79 377.15 42.02 362.17 44.42Z"
      fill="white"
    />
<path
      opacity="0.5"
      d="M335.65 52.59C335.87 53.95 341.12 54.34 348.83 53.79L362.82 48.51L347.8 47.33C340.3 49.23 335.43 51.23 335.65 52.59Z"
      fill="white"
    />
<path
      opacity="0.5"
      d="M378.96 42.56L364.76 48.18L379.93 48.59C386.18 46.87 390.11 45.13 389.91 43.9C389.71 42.67 385.44 42.24 378.96 42.56Z"
      fill="white"
    />
<path
      opacity="0.4"
      d="M120.86 59.93C88.79 65.07 63.39 72.89 64.11 77.41C64.83 81.93 91.41 81.43 123.48 76.29C155.55 71.15 180.95 63.33 180.23 58.81C179.51 54.29 152.93 54.79 120.86 59.93Z"
      fill="white"
    />
<path
      opacity="0.5"
      d="M64.11 77.41C64.58 80.32 75.81 81.15 92.33 79.99L122.27 68.68L90.12 66.15C74.07 70.21 63.65 74.5 64.12 77.41H64.11Z"
      fill="white"
    />
<path
      opacity="0.5"
      d="M156.8 55.95L126.4 67.98L158.86 68.85C172.24 65.17 180.65 61.43 180.23 58.81C179.81 56.19 170.66 55.26 156.8 55.95Z"
      fill="white"
    />
<path
      opacity="0.4"
      d="M417.34 10.01C385.27 15.15 359.87 22.97 360.59 27.49C361.31 32.01 387.89 31.51 419.96 26.37C452.03 21.23 477.43 13.41 476.71 8.89C475.99 4.37 449.41 4.87 417.34 10.01Z"
      fill="white"
    />
<path
      opacity="0.5"
      d="M360.59 27.49C361.06 30.4 372.29 31.23 388.81 30.07L418.75 18.76L386.6 16.23C370.55 20.29 360.13 24.58 360.6 27.49H360.59Z"
      fill="white"
    />
<path
      opacity="0.5"
      d="M453.28 6.04L422.88 18.07L455.34 18.94C468.72 15.26 477.13 11.52 476.71 8.9C476.29 6.28 467.14 5.35 453.28 6.04Z"
      fill="white"
    />
<path
      d="M319.82 88.31L322.28 102.72L336.25 100.33L337.9 109.93L349.68 107.91L345.28 82.16L319.82 88.31Z"
      fill="#D9D9D9"
    />
<path
      d="M319.82 88.31L321.19 96.34C321.19 96.34 321.26 96.32 321.29 96.31C329.77 94.06 338.41 93.25 347.09 92.79L345.27 82.15L319.81 88.3L319.82 88.31Z"
      fill="#BFBFBF"
    />
<path
      d="M302.91 89.11L253.83 97.51L258.54 125.04C258.91 127.2 260.96 128.65 263.11 128.28L304.38 121.22C306.54 120.85 307.99 118.8 307.62 116.65L302.91 89.12V89.11Z"
      fill="#D9D9D9"
    />
<path
      d="M242.53 101.54L216.47 104.2L220.88 129.95L232.67 127.94L231.02 118.33L244.99 115.94L242.53 101.54Z"
      fill="#D9D9D9"
    />
<path
      d="M216.47 104.2L218.24 114.56C218.66 114.42 219.09 114.29 219.54 114.18C227.59 112.23 235.75 110.95 243.94 109.85L242.52 101.54L216.46 104.2H216.47Z"
      fill="#BFBFBF"
    />
<path
      d="M114.21 95.06L116.19 107.01L144.04 102.25L142.07 90.3L114.21 95.06Z"
      fill="white"
    />
<path
      d="M121.88 76.86L124.55 93.44L131.45 92.26L128.78 75.68L121.88 76.86Z"
      fill="#D9D9D9"
    />
<path
      d="M130.018 66.793L117.756 68.8912L119.2 77.3285L131.461 75.2304L130.018 66.793Z"
      fill="white"
    />
<path
      d="M122.74 61.12C119.35 61.7 117.08 64.92 117.66 68.3L117.76 68.88L130.03 66.78L129.93 66.2C129.35 62.81 126.13 60.54 122.75 61.12H122.74Z"
      fill="white"
    />
<path
      d="M197.28 92.58L195.51 82.23L197.32 81.92L196.35 76.25L196.28 75.86C195.89 73.58 193.73 72.05 191.45 72.44C189.17 72.83 187.64 74.99 188.03 77.27L188.1 77.66L189.07 83.33L195.06 82.31L190.88 83.03L192.65 93.38L185.6 94.59L187.07 103.19L205.81 99.98L204.34 91.38L197.29 92.59L197.28 92.58Z"
      fill="white"
    />
<path d="M361.3 53.86L361.75 53.78L361.3 53.86Z" fill="white" />
<path
      d="M367.71 63.41L365.94 53.06L367.75 52.75L366.78 47.08L366.71 46.69C366.32 44.41 364.16 42.88 361.88 43.27C359.6 43.66 358.07 45.82 358.46 48.1L358.53 48.49L359.5 54.16L361.31 53.85L361.77 53.77L361.31 53.85L363.08 64.2L356.03 65.41L357.5 74.01L376.24 70.8L374.77 62.2L367.72 63.41H367.71Z"
      fill="white"
    />
<path
      d="M274.18 47.51L273.84 47.57C240.36 53.43 234.05 88.15 232.68 93.4L328.16 77.23C325.12 72.74 307.71 41.9 274.18 47.51Z"
      fill="white"
    />
<path
      d="M232.68 93.4L255.97 89.46C255.34 75.44 261.25 59.73 269.92 48.44C239.87 56.21 234 88.37 232.68 93.41V93.4Z"
      fill="#E3E3E3"
    />
<path
      d="M220.88 129.95C220.88 129.95 217.24 152.14 218.15 160.08C219.06 168.01 221.14 177.54 221.14 177.54C221.14 177.54 223.25 184.81 229.23 188.28L223.63 155.54L232.67 127.94L220.88 129.96V129.95Z"
      fill="#211D1C"
    />
<path
      d="M362.28 135.42C360.5 127.64 349.69 107.92 349.69 107.92L337.9 109.94L355.61 132.98L361.21 165.72C365.7 160.46 365.27 152.89 365.27 152.89C365.27 152.89 364.06 143.21 362.28 135.43V135.42Z"
      fill="#211D1C"
    />
<path
      d="M438.74 51.79L412.55 56.27C408.6 56.95 405.71 60.15 405.25 63.93L368.84 70.36C359.98 71.92 351 72.6 342.01 72.36L324.69 72.26L235.08 87.35L219.48 92.84C211.07 96.11 202.36 98.52 193.47 100.04L153.81 106.83C152.09 103.48 148.34 101.47 144.43 102.14L118.24 106.62C113.42 107.45 110.18 112.02 111 116.85C111.83 121.67 116.4 124.91 121.23 124.09L138.68 121.1L228.01 105.82L258.39 115.3L306.6 106.45L331.87 89.54L429.09 71.41L441.75 69.24C446.57 68.41 449.81 63.84 448.99 59.01C448.16 54.19 443.59 50.95 438.76 51.77L438.74 51.79Z"
      fill="#211D1C"
    />
<path
      d="M410.83 44.31L412.58 56.4L440.43 51.63L438.68 39.54L410.83 44.31Z"
      fill="white"
    />
<path
      d="M418.5 26.11L421.09 42.83L427.99 41.65L425.4 24.93L418.5 26.11Z"
      fill="#D9D9D9"
    />
<path
      d="M426.627 16.0336L414.365 18.1317L415.809 26.5691L428.071 24.4709L426.627 16.0336Z"
      fill="white"
    />
<path
      d="M419.35 10.37C415.96 10.95 413.69 14.17 414.27 17.55L414.37 18.13L426.64 16.03L426.54 15.45C425.96 12.06 422.74 9.79001 419.36 10.37H419.35Z"
      fill="white"
    />
<g opacity="0.5">
<path
        d="M304.03 9.90999C291.96 1.49999 277.34 -1.71001 262.86 0.879991C248.38 3.45999 235.77 11.53 227.36 23.6C226.72 24.51 226.95 25.77 227.86 26.41C228.21 26.66 228.61 26.77 229.01 26.77C229.65 26.77 230.28 26.47 230.67 25.91C238.46 14.73 250.15 7.24999 263.57 4.84999C276.99 2.45999 290.54 5.42999 301.72 13.22C302.63 13.86 303.89 13.63 304.53 12.72C305.17 11.81 304.94 10.55 304.03 9.90999Z"
        fill="white"
      />
<path
        d="M295.09 22.73C286.45 16.71 275.98 14.41 265.61 16.26C255.24 18.11 246.21 23.89 240.19 32.53C239.55 33.44 239.78 34.7 240.69 35.34C241.04 35.59 241.44 35.7 241.84 35.7C242.48 35.7 243.11 35.4 243.5 34.84C248.91 27.08 257.01 21.9 266.32 20.23C275.63 18.57 285.03 20.63 292.79 26.04C293.7 26.68 294.96 26.45 295.6 25.54C296.24 24.63 296.01 23.37 295.1 22.73H295.09Z"
        fill="white"
      />
<path
        d="M286.15 35.55C280.93 31.91 274.62 30.53 268.35 31.64C262.09 32.76 256.64 36.25 253 41.46C252.36 42.37 252.59 43.63 253.5 44.27C253.85 44.52 254.25 44.63 254.65 44.63C255.29 44.63 255.92 44.33 256.31 43.77C259.33 39.44 263.86 36.54 269.05 35.61C274.25 34.68 279.5 35.83 283.83 38.85C284.74 39.49 286 39.26 286.64 38.35C287.28 37.44 287.05 36.18 286.14 35.54L286.15 35.55Z"
        fill="white"
      />
</g>
<path
      d="M195.19 174.59L220.59 352L440.11 321.3L414.7 143.89L195.19 174.59Z"
      fill="#B0856F"
    />
<path
      d="M195.19 174.59L220.59 352L225.39 351.33L199.99 173.92L195.19 174.59Z"
      fill="#AD826E"
    />
<path
      d="M206.53 173L231.93 350.41L236.73 349.74L211.33 172.33L206.53 173Z"
      fill="#AD826E"
    />
<path
      d="M217.87 171.42L243.27 348.83L248.07 348.15L222.67 170.74L217.87 171.42Z"
      fill="#AD826E"
    />
<path
      d="M229.21 169.83L254.61 347.24L259.41 346.57L234.01 169.16L229.21 169.83Z"
      fill="#AD826E"
    />
<path
      d="M240.55 168.24L265.95 345.65L270.75 344.98L245.35 167.57L240.55 168.24Z"
      fill="#AD826E"
    />
<path
      d="M251.88 166.66L277.29 344.07L282.09 343.4L256.68 165.99L251.88 166.66Z"
      fill="#AD826E"
    />
<path
      d="M263.22 165.07L288.63 342.48L293.43 341.81L268.02 164.4L263.22 165.07Z"
      fill="#AD826E"
    />
<path
      d="M274.56 163.49L299.96 340.9L304.76 340.23L279.36 162.82L274.56 163.49Z"
      fill="#AD826E"
    />
<path
      d="M285.9 161.9L311.3 339.31L316.1 338.64L290.7 161.23L285.9 161.9Z"
      fill="#AD826E"
    />
<path
      d="M297.24 160.32L322.64 337.73L327.44 337.06L302.04 159.65L297.24 160.32Z"
      fill="#AD826E"
    />
<path
      d="M308.58 158.73L333.98 336.14L338.78 335.47L313.38 158.06L308.58 158.73Z"
      fill="#AD826E"
    />
<path
      d="M319.92 157.15L345.32 334.56L350.12 333.89L324.72 156.48L319.92 157.15Z"
      fill="#AD826E"
    />
<path
      d="M331.26 155.56L356.66 332.97L361.46 332.3L336.06 154.89L331.26 155.56Z"
      fill="#AD826E"
    />
<path
      d="M342.6 153.98L368 331.39L372.8 330.71L347.4 153.3L342.6 153.98Z"
      fill="#AD826E"
    />
<path
      d="M353.94 152.39L379.34 329.8L384.14 329.13L358.74 151.72L353.94 152.39Z"
      fill="#AD826E"
    />
<path
      d="M365.28 150.8L390.68 328.22L395.48 327.54L370.08 150.13L365.28 150.8Z"
      fill="#AD826E"
    />
<path
      d="M376.62 149.22L402.02 326.63L406.82 325.96L381.42 148.55L376.62 149.22Z"
      fill="#AD826E"
    />
<path
      d="M387.96 147.63L413.36 325.04L418.16 324.37L392.76 146.96L387.96 147.63Z"
      fill="#AD826E"
    />
<path
      d="M399.29 146.05L424.7 323.46L429.5 322.79L404.09 145.38L399.29 146.05Z"
      fill="#AD826E"
    />
<path
      d="M410.63 144.46L436.03 321.87L440.83 321.2L415.43 143.79L410.63 144.46Z"
      fill="#AD826E"
    />
<path
      d="M324.403 156.081L285.411 161.665L289.642 191.213L328.634 185.629L324.403 156.081Z"
      fill="#C09D8C"
    />
<path
      d="M345.57 303.936L306.578 309.52L310.81 339.069L349.802 333.485L345.57 303.936Z"
      fill="#C09D8C"
    />
<path
      d="M181.52 188.7L203.77 344.12L220.59 352L195.19 174.59L181.52 188.7Z"
      fill="#846453"
    />
<path
      d="M395.13 286.97L390.5 282.31L387.35 288.08L384.2 293.84L389.94 293.03L393.19 315.85L397.68 315.21L394.43 292.39L399.77 291.63L395.13 286.97Z"
      fill="#846453"
    />
<path
      d="M418.55 283.64L413.91 278.98L410.76 284.75L407.61 290.51L413.13 289.73L416.37 312.56L420.87 311.92L417.62 289.09L423.18 288.3L418.55 283.64Z"
      fill="#846453"
    />
<path
      d="M409.07 273.07L404.44 268.41L399.81 263.75L396.66 269.52L393.51 275.28L399.22 274.47L404.87 314.19L409.36 313.55L403.71 273.83L409.07 273.07Z"
      fill="#846453"
    />
<path
      opacity="0.05"
      d="M196.39 177.5C196.03 176.88 195.68 176.25 195.34 175.62L220.59 351.99L440.83 321.2C436.6 320.26 312.34 311.83 196.38 177.5H196.39Z"
      fill="url(#paint0_linear_1_562)"
    />
<path
      d="M258.54 324.69C245.26 326.53 232.96 317.22 231.13 303.94C229.3 290.66 238.6 278.36 251.88 276.53C265.16 274.69 277.46 284 279.29 297.28C281.12 310.56 271.82 322.86 258.54 324.69ZM252.13 278.38C239.87 280.08 231.28 291.43 232.98 303.69C234.68 315.95 246.03 324.54 258.29 322.84C270.55 321.14 279.14 309.79 277.44 297.53C275.74 285.27 264.39 276.68 252.13 278.38Z"
      fill="#77584A"
    />
<path
      d="M259.17 301.95C258.66 302.02 258.19 301.66 258.12 301.15C258.05 300.64 258.41 300.17 258.92 300.1C260.96 299.82 262.39 297.93 262.11 295.88C261.83 293.83 259.94 292.41 257.89 292.69L244 294.61C243.49 294.68 243.02 294.32 242.95 293.81C242.88 293.3 243.24 292.83 243.75 292.76L257.64 290.84C260.7 290.42 263.54 292.56 263.97 295.63C264.4 298.7 262.25 301.53 259.18 301.96L259.17 301.95Z"
      fill="#77584A"
    />
<path
      d="M262.3 310.95L246.55 313.13C246.04 313.2 245.57 312.84 245.5 312.33C245.43 311.82 245.79 311.35 246.3 311.28L262.05 309.1C264.09 308.82 265.52 306.93 265.24 304.88C264.96 302.83 263.07 301.41 261.02 301.69L248.98 303.36C248.47 303.43 248 303.07 247.93 302.56C247.86 302.05 248.22 301.58 248.73 301.51L260.77 299.84C263.83 299.42 266.67 301.56 267.1 304.63C267.53 307.7 265.38 310.53 262.31 310.96L262.3 310.95Z"
      fill="#77584A"
    />
<path
      d="M250.26 312.62C249.75 312.69 249.28 312.33 249.21 311.82L246.65 293.3C246.58 292.79 246.94 292.32 247.45 292.25C247.96 292.18 248.43 292.54 248.5 293.05L251.06 311.57C251.13 312.08 250.77 312.55 250.26 312.62Z"
      fill="#77584A"
    />
<path
      d="M251.4 293.58C250.89 293.65 250.42 293.29 250.35 292.78L249.58 287.22C249.51 286.71 249.87 286.24 250.38 286.17C250.89 286.1 251.36 286.46 251.43 286.97L252.2 292.53C252.27 293.04 251.91 293.51 251.4 293.58Z"
      fill="#77584A"
    />
<path
      d="M256.96 292.81C256.45 292.88 255.98 292.52 255.91 292.01L255.14 286.45C255.07 285.94 255.43 285.47 255.94 285.4C256.45 285.33 256.92 285.69 256.99 286.2L257.76 291.76C257.83 292.27 257.47 292.74 256.96 292.81Z"
      fill="#77584A"
    />
<path
      d="M254.74 317.66C254.23 317.73 253.76 317.37 253.69 316.86L252.92 311.3C252.85 310.79 253.21 310.32 253.72 310.25C254.23 310.18 254.7 310.54 254.77 311.05L255.54 316.61C255.61 317.12 255.25 317.59 254.74 317.66Z"
      fill="#77584A"
    />
<path
      d="M260.29 316.89C259.78 316.96 259.31 316.6 259.24 316.09L258.47 310.53C258.4 310.02 258.76 309.55 259.27 309.48C259.78 309.41 260.25 309.77 260.32 310.28L261.09 315.84C261.16 316.35 260.8 316.82 260.29 316.89Z"
      fill="#77584A"
    />
</g>
<defs>
<linearGradient
      id="paint0_linear_1_562"
      x1="328.8"
      y1="326.13"
      x2="303.8"
      y2="189.13"
      gradientUnits="userSpaceOnUse"
    >
<stop offset="0.23" stop-color="#1D1D1B" />
<stop offset="1" />
</linearGradient>
<clipPath id="clip0_1_562">
<rect width="476.73" height="352" fill="white" />
</clipPath>
</defs>
</svg>
